<svg width="0" height="0" class="hidden">
  <symbol xmlns="http://www.w3.org/2000/svg" viewBox="0 0 362.001 362.001" id="refresh">
    <path d="M181.001 0C81.197 0 0 81.196 0 181.001c0 99.804 81.196 181 181 181s181-81.196 181-181C362.001 81.196 280.804 0 181.001 0zm127.738 195.717c-6.299 4.202-14.609 2.989-19.504-2.51-6.126 55.823-53.56 99.401-110.987 99.401-61.572 0-111.664-50.092-111.664-111.664 0-61.571 50.092-111.663 111.664-111.663 8.285 0 15 6.716 15 15s-6.716 15-15 15c-45.03 0-81.664 36.634-81.664 81.663s36.634 81.664 81.664 81.664c40.21 0 73.7-29.22 80.415-67.535a15.018 15.018 0 0 1-9.176 3.155c-2.859 0-5.751-.816-8.309-2.522-6.893-4.596-8.754-13.909-4.157-20.802l22.685-33.971c3.505-5.255 9.206-8.346 15.25-8.346h.003c6.045 0 11.745 3.088 15.251 8.342l22.687 33.998c4.596 6.892 2.734 16.194-4.158 20.79z"></path>
  </symbol>
</svg>